<?xml version="1.0" standalone="no"?>
<!DOCTYPE svg PUBLIC "-//W3C//DTD SVG 20010904//EN"
 "http://www.w3.org/TR/2001/REC-SVG-20010904/DTD/svg10.dtd">
<svg version="1.0" xmlns="http://www.w3.org/2000/svg"
 width="1280.000000pt" height="1050.000000pt" viewBox="0 0 1280.000000 1050.000000"
 preserveAspectRatio="xMidYMid meet">
<metadata>
Created by potrace 1.15, written by Peter Selinger 2001-2017
</metadata>
<g transform="translate(0.000000,1050.000000) scale(0.100000,-0.100000)"
fill="#000000" stroke="none">
<path d="M6345 10494 c-24 -7 -386 -119 -830 -259 -181 -57 -834 -262 -1450
-455 -616 -193 -1232 -387 -1370 -430 -275 -86 -814 -256 -1110 -348 -1066
-335 -1319 -415 -1350 -427 -19 -9 -54 -32 -77 -53 -142 -128 -107 -362 67
-447 45 -22 73 -28 160 -33 l105 -5 0 -811 c0 -645 3 -821 14 -861 21 -81 64
-155 125 -216 94 -94 209 -139 353 -139 l78 0 0 -2140 0 -2140 -51 0 c-98 0
-183 -38 -236 -107 -28 -37 -713 -1165 -746 -1230 -64 -124 -3 -296 129 -363
l49 -25 3930 4 c2162 2 4947 7 6190 10 l2260 6 56 26 c59 28 115 87 140 149
23 57 18 167 -10 220 -13 24 -172 301 -353 615 -355 617 -375 645 -474 679
-31 10 -82 16 -146 16 l-98 0 0 2140 0 2140 58 0 c71 0 155 21 224 56 67 34
158 125 192 192 57 112 56 97 56 973 l0 806 89 6 c145 9 232 62 282 171 54
118 -6 290 -122 351 -14 7 -851 278 -1860 600 -1009 323 -2354 753 -2989 957
-1125 360 -1222 388 -1285 372z m-2905 -6624 l0 -2140 -635 0 -635 0 0 2140 0
2140 635 0 635 0 0 -2140z m2380 0 l0 -2140 -635 0 -635 0 0 2140 0 2140 635
0 635 0 0 -2140z m2390 0 l0 -2140 -640 0 -640 0 0 2140 0 2140 640 0 640 0 0
-2140z m2380 0 l0 -2140 -635 0 -635 0 0 2140 0 2140 635 0 635 0 0 -2140z"/>
</g>
</svg>
